<svg xmlns="http://www.w3.org/2000/svg" viewBox="0 0 512 512" width="512" height="512">
  <defs>
    <radialGradient id="eyeRed" cx="50%" cy="50%" r="50%">
      <stop offset="0%" stop-color="#ffe0e0"></stop>
      <stop offset="20%" stop-color="#ff4040"></stop>
      <stop offset="60%" stop-color="#c80000"></stop>
      <stop offset="100%" stop-color="#5a0000" stop-opacity="0"></stop>
    </radialGradient>
    <radialGradient id="eyeGlowRed" cx="50%" cy="50%" r="50%">
      <stop offset="0%" stop-color="#ff5040" stop-opacity="0.85"></stop>
      <stop offset="100%" stop-color="#c80000" stop-opacity="0"></stop>
    </radialGradient>
  </defs>

  
  <g>
    
    <g fill="#0a040e" stroke="#0a0a14" stroke-width="2">
      <rect x="40" y="180" width="36" height="36" transform="rotate(12 58 198)"></rect>
      <rect x="84" y="120" width="28" height="28" transform="rotate(-15 98 134)"></rect>
      <rect x="20" y="280" width="32" height="32" transform="rotate(8 36 296)"></rect>
      <rect x="64" y="370" width="26" height="26" transform="rotate(20 77 383)"></rect>

      <rect x="436" y="180" width="36" height="36" transform="rotate(-12 454 198)"></rect>
      <rect x="400" y="120" width="28" height="28" transform="rotate(15 414 134)"></rect>
      <rect x="460" y="280" width="32" height="32" transform="rotate(-8 476 296)"></rect>
      <rect x="422" y="370" width="26" height="26" transform="rotate(-20 435 383)"></rect>
    </g>
    
    <g fill="#1a0a1a">
      <rect x="110" y="80" width="20" height="20" transform="rotate(20 120 90)"></rect>
      <rect x="140" y="140" width="16" height="16" transform="rotate(-10 148 148)"></rect>
      <rect x="60" y="240" width="22" height="22" transform="rotate(15 71 251)"></rect>
      <rect x="120" y="340" width="18" height="18" transform="rotate(-20 129 349)"></rect>
      <rect x="380" y="80" width="20" height="20" transform="rotate(-20 390 90)"></rect>
      <rect x="356" y="140" width="16" height="16" transform="rotate(10 364 148)"></rect>
      <rect x="430" y="240" width="22" height="22" transform="rotate(-15 441 251)"></rect>
      <rect x="372" y="340" width="18" height="18" transform="rotate(20 381 349)"></rect>
    </g>
    
    <g fill="#1a0a1a" opacity="0.85">
      <rect x="160" y="60" width="10" height="10"></rect>
      <rect x="180" y="100" width="8" height="8" transform="rotate(15 184 104)"></rect>
      <rect x="40" y="140" width="10" height="10"></rect>
      <rect x="20" y="220" width="9" height="9"></rect>
      <rect x="100" y="420" width="11" height="11"></rect>
      <rect x="350" y="60" width="10" height="10"></rect>
      <rect x="338" y="100" width="8" height="8" transform="rotate(-15 342 104)"></rect>
      <rect x="468" y="140" width="10" height="10"></rect>
      <rect x="488" y="220" width="9" height="9"></rect>
      <rect x="404" y="420" width="11" height="11"></rect>
    </g>
    
    <g fill="#3a1428" opacity="0.7">
      <rect x="200" y="60" width="4" height="4"></rect>
      <rect x="240" y="40" width="4" height="4"></rect>
      <rect x="270" y="50" width="4" height="4"></rect>
      <rect x="300" y="40" width="4" height="4"></rect>
      <rect x="316" y="64" width="4" height="4"></rect>
      <rect x="80" y="60" width="4" height="4"></rect>
      <rect x="416" y="60" width="4" height="4"></rect>
      <rect x="14" y="160" width="4" height="4"></rect>
      <rect x="494" y="160" width="4" height="4"></rect>
      <rect x="20" y="340" width="4" height="4"></rect>
      <rect x="488" y="340" width="4" height="4"></rect>
      <rect x="40" y="440" width="4" height="4"></rect>
      <rect x="468" y="440" width="4" height="4"></rect>
    </g>
    
    <g fill="#7a0c14" opacity="0.55">
      <ellipse cx="60" cy="200" rx="40" ry="14"></ellipse>
      <ellipse cx="452" cy="200" rx="40" ry="14"></ellipse>
      <ellipse cx="100" cy="380" rx="48" ry="16"></ellipse>
      <ellipse cx="412" cy="380" rx="48" ry="16"></ellipse>
    </g>
  </g>

  
  <path d="M 110 280&#xA;           Q 90 320 86 380&#xA;           L 78 510&#xA;           L 102 500 L 96 514 L 124 502 L 128 514 L 152 500&#xA;           L 160 514 L 184 500 L 196 514 L 220 500 L 232 514&#xA;           L 256 500 L 280 514 L 292 500 L 316 514 L 328 500&#xA;           L 360 514 L 368 502 L 388 514 L 416 500 L 410 514&#xA;           L 434 510&#xA;           L 426 380&#xA;           Q 422 320 402 280&#xA;           Q 380 264 346 260&#xA;           L 168 260&#xA;           Q 132 264 110 280 Z" fill="#0a060e" stroke="#0a0a14" stroke-width="4" stroke-linejoin="round"></path>
  
  <path d="M 124 286&#xA;           Q 108 322 104 388&#xA;           L 100 488&#xA;           L 124 480&#xA;           Q 144 420 152 360&#xA;           Q 160 298 172 280 Z" fill="#06030a"></path>
  <path d="M 388 286&#xA;           Q 404 322 408 388&#xA;           L 412 488&#xA;           L 388 480&#xA;           Q 368 420 360 360&#xA;           Q 352 298 340 280 Z" fill="#1a0a18" opacity="0.7"></path>

  
  <path d="M 168 256&#xA;           Q 174 220 200 210&#xA;           L 220 200 L 232 224&#xA;           L 280 224 L 292 200 L 312 210&#xA;           Q 338 220 344 256&#xA;           Q 320 270 256 270&#xA;           Q 192 270 168 256 Z" fill="#0a060e" stroke="#0a0a14" stroke-width="4" stroke-linejoin="round"></path>
  
  <path d="M 200 220 Q 220 230 256 232 Q 292 230 312 220 Q 312 250 296 256 Q 256 264 216 256 Q 200 250 200 220 Z" fill="#1a0a14"></path>
  
  <g fill="#c81818" opacity="0.85">
    <rect x="186" y="240" width="6" height="3"></rect>
    <rect x="200" y="246" width="4" height="3"></rect>
    <rect x="318" y="240" width="6" height="3"></rect>
    <rect x="306" y="246" width="4" height="3"></rect>
  </g>

  
  <path d="M 234 218 L 234 244 Q 256 250 278 244 L 278 218 Z" fill="#dcd0c4" stroke="#0a0a14" stroke-width="3" stroke-linejoin="round"></path>
  <path d="M 234 230 Q 256 240 278 230 L 278 244 Q 256 250 234 244 Z" fill="#a8988c"></path>
  
  <g stroke="#5a1818" stroke-width="1.6" fill="none" stroke-linecap="round" opacity="0.95">
    <path d="M 240 222 L 250 232"></path>
    <path d="M 246 220 L 252 226"></path>
    <path d="M 264 220 L 272 230"></path>
    <path d="M 270 222 L 278 230"></path>
  </g>

  
  
  <path d="M 196 112&#xA;           Q 192 80 224 70&#xA;           Q 256 64 288 70&#xA;           Q 320 80 316 112&#xA;           Q 318 168 302 196&#xA;           Q 280 218 256 218&#xA;           Q 232 218 210 196&#xA;           Q 194 168 196 112 Z" fill="#dcd0c4" stroke="#0a0a14" stroke-width="4" stroke-linejoin="round"></path>
  
  <path d="M 196 112 Q 192 80 224 70 Q 240 66 246 70 L 246 218 Q 232 218 210 196 Q 194 168 196 112 Z" fill="#a89890" opacity="0.85"></path>
  
  <g stroke="#5a1818" stroke-width="1.6" fill="none" stroke-linecap="round" opacity="0.95">
    <path d="M 280 168 L 296 184"></path>
    <path d="M 288 162 L 298 172"></path>
    <path d="M 274 188 L 286 200"></path>
  </g>

  
  <path d="M 230 196 Q 252 200 286 192" stroke="#3a0808" stroke-width="3" fill="none" stroke-linecap="round"></path>
  
  <path d="M 268 194 L 274 196" stroke="#fff" stroke-width="1.4" stroke-linecap="round" opacity="0.7"></path>

  
  <path d="M 252 162 Q 250 178 248 184" stroke="#7a6a60" stroke-width="2" fill="none" stroke-linecap="round"></path>

  
  <g>
    
    <path d="M 192 112&#xA;             Q 188 64 224 56&#xA;             Q 256 50 288 56&#xA;             Q 322 66 320 116&#xA;             L 316 130&#xA;             Q 314 96 296 84&#xA;             Q 270 76 256 78&#xA;             Q 232 78 218 86&#xA;             Q 200 100 196 130 Z" fill="#e8e4dc" stroke="#0a0a14" stroke-width="4" stroke-linejoin="round"></path>
    
    <g fill="#e8e4dc" stroke="#0a0a14" stroke-width="3" stroke-linejoin="round">
      <path d="M 196 116 L 192 220 L 200 200 L 204 224 L 212 200 L 216 218 L 218 168 Z"></path>
      <path d="M 218 110 L 214 198 L 220 178 L 224 200 L 232 176 L 234 196 L 240 158 Z"></path>
      <path d="M 244 100 L 238 196 L 244 174 L 248 198 L 254 168 L 256 196 L 264 132 Z"></path>
      <path d="M 270 102 L 264 196 L 268 174 L 272 200 L 278 168 L 282 196 L 290 134 Z"></path>
      <path d="M 296 104 L 286 200 L 290 178 L 294 204 L 302 174 L 308 196 L 314 144 Z"></path>
      <path d="M 318 116 L 308 220 L 312 198 L 318 222 L 322 196 L 318 168 Z"></path>
    </g>
    
    <g fill="#a8a09a" opacity="0.75">
      <path d="M 196 130 Q 200 100 218 86 Q 232 78 246 78 L 246 130 Q 220 124 200 132 Z"></path>
      <path d="M 198 140 L 200 200 L 204 180 L 208 170"></path>
      <path d="M 222 140 L 220 180 L 226 170"></path>
    </g>
  </g>

  
  <g>
    
    <path d="M 184 130&#xA;             Q 174 168 184 210&#xA;             Q 200 230 232 232&#xA;             Q 268 232 296 222&#xA;             Q 318 210 322 180&#xA;             Q 322 144 312 124&#xA;             Q 280 110 232 112&#xA;             Q 200 116 184 130 Z" fill="#dcd0c4" stroke="#0a0a14" stroke-width="4" stroke-linejoin="round"></path>
    
    <path d="M 184 130 Q 174 168 184 210 Q 200 230 220 232 L 220 112 Q 200 116 184 130 Z" fill="#a89890" opacity="0.7"></path>

    
    
    <path d="M 188 168&#xA;             Q 158 192 152 226&#xA;             Q 156 246 174 246&#xA;             Q 200 232 208 210 Z" fill="#dcd0c4" stroke="#0a0a14" stroke-width="3" stroke-linejoin="round"></path>
    <path d="M 156 226 Q 162 240 174 244" stroke="#0a0a14" stroke-width="2" fill="none"></path>

    
    <path d="M 196 122&#xA;             Q 178 80 178 56&#xA;             Q 184 44 196 50&#xA;             Q 210 80 216 124 Z" fill="#dcd0c4" stroke="#0a0a14" stroke-width="3" stroke-linejoin="round"></path>
    <path d="M 188 80 Q 196 90 200 96" stroke="#0a0a14" stroke-width="1.8" fill="none"></path>

    
    <path d="M 224 116&#xA;             Q 216 70 222 40&#xA;             Q 232 30 244 36&#xA;             Q 246 76 240 120 Z" fill="#dcd0c4" stroke="#0a0a14" stroke-width="3" stroke-linejoin="round"></path>
    <path d="M 226 64 Q 234 74 238 80" stroke="#0a0a14" stroke-width="1.8" fill="none"></path>

    
    <path d="M 254 116&#xA;             Q 254 72 264 40&#xA;             Q 274 30 284 38&#xA;             Q 282 80 270 120 Z" fill="#dcd0c4" stroke="#0a0a14" stroke-width="3" stroke-linejoin="round"></path>
    <path d="M 264 66 Q 272 76 274 82" stroke="#0a0a14" stroke-width="1.8" fill="none"></path>

    
    <path d="M 286 124&#xA;             Q 296 86 312 60&#xA;             Q 322 56 326 70&#xA;             Q 322 102 308 132 Z" fill="#dcd0c4" stroke="#0a0a14" stroke-width="3" stroke-linejoin="round"></path>
    <path d="M 300 86 Q 306 94 310 98" stroke="#0a0a14" stroke-width="1.8" fill="none"></path>

    
    <g fill="#7a6a60" opacity="0.5">
      <ellipse cx="200" cy="92" rx="6" ry="3"></ellipse>
      <ellipse cx="232" cy="74" rx="6" ry="3"></ellipse>
      <ellipse cx="270" cy="78" rx="6" ry="3"></ellipse>
      <ellipse cx="306" cy="100" rx="6" ry="3"></ellipse>
    </g>
    
    <g stroke="#3a2030" stroke-width="0.8" fill="none" opacity="0.6">
      <path d="M 200 200 Q 212 180 220 170"></path>
      <path d="M 240 220 Q 256 200 268 192"></path>
      <path d="M 274 218 Q 290 198 300 188"></path>
    </g>
    
    <path d="M 196 130 Q 240 110 312 124" stroke="#fff" stroke-width="2" fill="none" opacity="0.45"></path>
  </g>

  
  
  <ellipse cx="244" cy="170" rx="28" ry="18" fill="url(#eyeGlowRed)"></ellipse>
  
  <path d="M 220 168 Q 232 158 252 162 Q 256 174 248 180 Q 232 184 220 178 Z" fill="#1a0008"></path>
  <ellipse cx="238" cy="172" rx="9" ry="7" fill="url(#eyeRed)"></ellipse>
  <ellipse cx="240" cy="172" rx="3" ry="5" fill="#1a0000"></ellipse>
  <ellipse cx="237" cy="170" rx="1.6" ry="1.2" fill="#fff"></ellipse>
  
  <ellipse cx="244" cy="170" rx="40" ry="3" fill="#ff5040" opacity="0.6"></ellipse>

  
  <ellipse cx="280" cy="172" rx="3" ry="2" fill="#c80000" opacity="0.7"></ellipse>

  
  <g fill="#e8e4dc" stroke="#0a0a14" stroke-width="2" stroke-linejoin="round" opacity="0.95">
    <path d="M 220 124 L 218 168 L 224 154 L 226 174 L 232 156 L 232 170 Z"></path>
    <path d="M 268 122 L 264 174 L 270 158 L 274 178 L 282 158 L 282 174 Z"></path>
  </g>

  
  <g opacity="0.5">
    <path d="M 314 110 Q 320 150 322 200" stroke="#ff5040" stroke-width="4" fill="none" stroke-linecap="round"></path>
    <path d="M 322 200 Q 340 220 388 260" stroke="#ff5040" stroke-width="4" fill="none" stroke-linecap="round"></path>
    <path d="M 330 280 L 408 380" stroke="#ff3030" stroke-width="3" fill="none" stroke-linecap="round" opacity="0.6"></path>
  </g>
</svg>